<svg width="32" height="32" viewBox="0 0 32 32" fill="none" xmlns="http://www.w3.org/2000/svg">
<path fill-rule="evenodd" clip-rule="evenodd" d="M9.7856 13.4464L16 7.232L22.2144 13.4528L25.8304 9.8368L16 0L6.1696 9.8304L9.7856 13.4464ZM0 16L3.616 12.384L7.232 16L3.616 19.616L0 16ZM9.7856 18.5536L16 24.768L22.2144 18.5472L25.8368 22.1632L16 32L6.1696 22.1696L6.1632 22.1632L9.7856 18.5536ZM24.768 16L28.384 12.384L32 16L28.384 19.616L24.768 16Z" fill="#F3BA2F"/>
<path fill-rule="evenodd" clip-rule="evenodd" d="M20.0309 16L15.9989 11.9552L13.0165 14.944L12.6709 15.2896L11.9605 16L11.9541 16.0064L11.9605 16.0128L15.9925 20.0448L20.0309 16.0064V16Z" fill="#F3BA2F"/>
</svg>
