<svg width="32" height="32" viewBox="0 0 32 32" fill="none" xmlns="http://www.w3.org/2000/svg">
<path fill-rule="evenodd" clip-rule="evenodd" d="M15.9525 26.625C12.8386 26.6226 10.3303 25.8754 8.57778 24.5333C6.80418 23.1751 5.86328 21.2476 5.86328 19.0667C5.86328 16.9652 6.80211 15.4499 7.86438 14.4256C8.69688 13.6229 9.61555 13.1088 10.2552 12.8131C10.1106 12.3692 9.93008 11.788 9.76861 11.1877C9.55258 10.3845 9.34061 9.44202 9.34061 8.75142C9.34061 7.93399 9.51885 7.11305 9.99938 6.47515C10.5071 5.80122 11.2714 5.44019 12.1909 5.44019C12.9095 5.44019 13.5196 5.70672 13.9972 6.16659C14.4538 6.60612 14.7577 7.18989 14.9675 7.79839C15.3361 8.86762 15.4797 10.211 15.52 11.5516H16.4007C16.441 10.211 16.5845 8.86762 16.9532 7.79839C17.163 7.18989 17.4669 6.60612 17.9234 6.16659C18.4011 5.70672 19.0112 5.44019 19.7298 5.44019C20.6493 5.44019 21.4136 5.80122 21.9213 6.47515C22.4018 7.11305 22.5801 7.93399 22.5801 8.75142C22.5801 9.44202 22.3681 10.3845 22.152 11.1877C21.9906 11.788 21.8101 12.3692 21.6654 12.8131C22.3051 13.1088 23.2238 13.6229 24.0563 14.4256C25.1186 15.4499 26.0574 16.9652 26.0574 19.0667C26.0574 21.2476 25.1165 23.1751 23.3429 24.5333C21.5903 25.8754 19.082 26.6226 15.9681 26.625H15.9525Z" fill="#633001"/>
<path d="M12.1911 6.21759C10.8443 6.21759 10.2244 7.23256 10.2244 8.63626C10.2244 9.75196 10.9447 11.9865 11.2402 12.8563C11.3067 13.052 11.2022 13.2663 11.0118 13.3422C9.9324 13.7721 6.74707 15.3463 6.74707 18.9515C6.74707 22.7492 9.98407 25.6127 15.9534 25.6172C15.9558 25.6172 15.9581 25.6172 15.9605 25.6172C15.9629 25.6172 15.9653 25.6172 15.9677 25.6172C21.937 25.6127 25.174 22.7492 25.174 18.9515C25.174 15.3463 21.9887 13.7721 20.9093 13.3422C20.7188 13.2663 20.6144 13.052 20.6808 12.8563C20.9764 11.9865 21.6967 9.75196 21.6967 8.63626C21.6967 7.23256 21.0767 6.21759 19.73 6.21759C17.7914 6.21759 17.3082 8.99169 17.2737 11.969C17.2714 12.1678 17.1123 12.329 16.9156 12.329H15.0055C14.8087 12.329 14.6497 12.1678 14.6474 11.969C14.6129 8.99169 14.1296 6.21759 12.1911 6.21759Z" fill="#D1884F"/>
<path d="M15.9677 24.4007C11.5817 24.4007 6.75464 22.0289 6.74707 18.9587C6.74707 18.9635 6.74707 18.9683 6.74707 18.9731C6.74707 22.7739 9.98924 25.6388 15.9677 25.6388C21.9461 25.6388 25.1882 22.7739 25.1882 18.9731C25.1882 18.9683 25.1882 18.9635 25.1882 18.9587C25.1807 22.0289 20.3536 24.4007 15.9677 24.4007Z" fill="#FEDC90"/>
<path d="M13.5305 18.0157C13.5305 19.0523 13.0455 19.5922 12.4474 19.5922C11.8492 19.5922 11.3643 19.0523 11.3643 18.0157C11.3643 16.9792 11.8492 16.4393 12.4474 16.4393C13.0455 16.4393 13.5305 16.9792 13.5305 18.0157Z" fill="#633001"/>
<path d="M20.5705 18.0157C20.5705 19.0523 20.0856 19.5922 19.4874 19.5922C18.8892 19.5922 18.4043 19.0523 18.4043 18.0157C18.4043 16.9792 18.8892 16.4393 19.4874 16.4393C20.0856 16.4393 20.5705 16.9792 20.5705 18.0157Z" fill="#633001"/>
</svg>
