<svg width="48" height="48" viewBox="0 0 48 48" fill="none" xmlns="http://www.w3.org/2000/svg">
<circle cx="24" cy="24" r="24" fill="#4E97B9"/>
<rect width="24" height="24" transform="translate(12 12)" fill="#4E97B9"/>
<path fill-rule="evenodd" clip-rule="evenodd" d="M14.75 23C14.75 18.4437 18.4437 14.75 23 14.75C27.5563 14.75 31.25 18.4437 31.25 23C31.25 27.5563 27.5563 31.25 23 31.25C18.4437 31.25 14.75 27.5563 14.75 23ZM23 13.25C17.6152 13.25 13.25 17.6152 13.25 23C13.25 28.3848 17.6152 32.75 23 32.75C25.4224 32.75 27.6385 31.8666 29.3437 30.4043L32.4697 33.5303C32.7626 33.8232 33.2374 33.8232 33.5303 33.5303C33.8232 33.2374 33.8232 32.7626 33.5303 32.4697L30.4043 29.3437C31.8666 27.6385 32.75 25.4224 32.75 23C32.75 17.6152 28.3848 13.25 23 13.25Z" fill="#F9EDCA"/>
</svg>
